# xmcd
#
# Track frame offsets: 
#        150
#        11964
#        25087
#        38483
#        50578
#        62924
#        77555
#        90121
#        103446
#        115644
#        127038
#        145317
#        157375
#        168980
#        182725
#        195663
#        212132
#        222714
#
# Disc length: 3155 seconds
#
# Revision: 1
# Processed by: cddbd v1.5.2PL0 Copyright (c) Steve Scherf et al.
# Submitted via: ExactAudioCopy v1.0b1
#
DISCID=070c5112
DTITLE=B. B. King - Easy Listening Blues
DYEAR=1962
DGENRE=Blues
TTITLE0=Easy Listening Blues (stereo)
TTITLE1=Blues For Me (stereo)
TTITLE2=Night Long (stereo)
TTITLE3=Confessin' (stereo)
TTITLE4=Don't Touch (stereo)
TTITLE5=Slow Walk (stereo)
TTITLE6=Walkin' (stereo)
TTITLE7=Hully Gully Twist (stereo)
TTITLE8=Shoutin' The Blues (stereo)
TTITLE9=Rambler (stereo)
TTITLE10=Really The Blues (stereo)
TTITLE11=Low Rider (stereo)
TTITLE12=3 O'Clock Stomp (stereo)
TTITLE13=Mashing The Popeye (Part 1) (stereo)
TTITLE14=Mashing The Popeye (Part 2) (stereo)
TTITLE15=King's Rock Jazz (stereo)
TTITLE16=Talkin' The Blues (mono)
TTITLE17=Boogie Rock (mono)
EXTD=YEAR: 1962
EXTT0=
EXTT1=
EXTT2=
EXTT3=
EXTT4=
EXTT5=
EXTT6=
EXTT7=
EXTT8=
EXTT9=
EXTT10=
EXTT11=
EXTT12=
EXTT13=
EXTT14=
EXTT15=
EXTT16=
EXTT17=
PLAYORDER=
